Coordinates
version=1
nRows=8
nColumns=34
inDegrees=yes

Units are S.I. units (second, meters, Newtons, ...)
If the header above contains a line with 'inDegrees', this indicates whether rotational values are in degrees (yes) or radians (no).

endheader
time	pelvis_tilt	pelvis_list	pelvis_rotation	pelvis_tx	pelvis_ty	pelvis_tz	hip_flexion_r	hip_adduction_r	hip_rotation_r	knee_angle_r	ankle_angle_r	subtalar_angle_r	mtp_angle_r	hip_flexion_l	hip_adduction_l	hip_rotation_l	knee_angle_l	ankle_angle_l	subtalar_angle_l	mtp_angle_l	lumbar_extension	lumbar_bending	lumbar_rotation	arm_flex_r	arm_add_r	arm_rot_r	elbow_flex_r	pro_sup_r	arm_flex_l	arm_add_l	arm_rot_l	elbow_flex_l	pro_sup_l
      4.70000000	    -16.64976052	      6.54271166	     -4.80283767	     -1.90290782	      0.92854975	      0.25589062	     16.97383839	     -5.86567876	     -8.04936353	      0.00000000	      4.13385222	      3.31310834	      0.00000000	     13.62726798	      0.12014324	    -37.52816816	      0.00000000	      0.76818148	     10.98284682	      0.00000000	     -1.93536645	     32.89256162	    -15.47717638	     -4.85296991	     -6.12576356	    -42.87145907	     45.45938751	     79.55598482	     -7.03099178	    -13.81938732	     27.54179118	     26.47152644	     44.97448319
      4.71666670	    -16.71439111	      6.50555915	     -4.88756323	     -1.90160216	      0.92968992	      0.25585040	     17.02844154	     -5.81808971	     -7.99734961	      0.00000000	      4.10973959	      3.33952363	      0.00000000	     13.65898337	      0.06371498	    -37.49753612	      0.00000000	      0.81861099	     11.00564351	      0.00000000	     -1.97589139	     32.87518849	    -15.50722719	     -4.90211185	     -6.16950495	    -42.89425151	     45.45779956	     79.55045456	     -7.03651591	    -13.74981543	     27.54482863	     26.50310593	     44.98910073
      4.73333330	    -16.83639524	      6.38878143	     -4.97557834	     -1.90025751	      0.92976289	      0.25579429	     17.08071863	     -5.69312172	     -7.74315299	      0.00000000	      4.03617173	      3.46262906	      0.00000000	     13.69239684	     -0.07067727	    -37.42603115	      0.00000000	      1.03399936	     11.07916459	      0.00000000	     -1.85489189	     33.06863586	    -15.37360257	     -4.91899499	     -6.26402910	    -42.93963050	     45.46614336	     79.53198964	     -7.17751813	    -13.55855254	     27.54797895	     26.57434947	     45.04168795
      4.75000000	    -16.88022745	      6.37019830	     -4.97532062	     -1.89944938	      0.92925652	      0.25564066	     17.05754017	     -5.70316946	     -7.73898411	      0.00000000	      4.03498004	      3.46384975	      0.00000000	     13.68058415	     -0.07327426	    -37.42813190	      0.00000000	      1.03708654	     11.07919981	      0.00000000	     -1.85346018	     33.06466056	    -15.36920703	     -4.91427398	     -6.26468780	    -42.93969013	     45.46795035	     79.53168594	     -7.17730773	    -13.55793718	     27.54729203	     26.57545495	     45.04272973
      4.76666670	    -16.94018127	      6.25322246	     -4.99279150	     -1.89881528	      0.92892377	      0.25537549	     17.01612764	     -5.59907686	     -7.54400755	      0.00000000	      4.03805836	      3.52466711	      0.00000000	     13.65525864	     -0.18734632	    -37.43736033	      0.00000000	      1.20407016	     11.14537937	      0.00000000	     -1.65410297	     33.18324539	    -15.32921373	     -4.95478087	     -6.36684223	    -42.99877812	     45.47998360	     79.50990460	     -7.24035582	    -13.39821945	     27.52763618	     26.64192677	     45.09860037
      4.78333330	    -16.97482085	      6.23661199	     -4.98978253	     -1.89867659	      0.92921146	      0.25510387	     17.00049716	     -5.61032623	     -7.54114611	      0.00000000	      4.03714751	      3.52528834	      0.00000000	     13.64272669	     -0.18525656	    -37.43994076	      0.00000000	      1.20388968	     11.14649509	      0.00000000	     -1.64958515	     33.18106169	    -15.32374619	     -4.95071739	     -6.36613534	    -42.99886327	     45.48132596	     79.50948820	     -7.24241642	    -13.39790287	     27.52668010	     26.64212487	     45.09989753
      4.80000000	    -16.99728033	      6.21554123	     -4.93368544	     -1.89825928	      0.92991441	      0.25492877	     16.96022844	     -5.62160766	     -7.51463183	      0.00000000	      4.02215895	      3.53954870	      0.00000000	     13.62780074	     -0.17997500	    -37.45703464	      0.00000000	      1.18596396	     11.15453084	      0.00000000	     -1.60247738	     33.17448892	    -15.29633294	     -4.93238239	     -6.37299844	    -43.00251411	     45.48728865	     79.50686160	     -7.25155560	    -13.36725032	     27.52425660	     26.64995734	     45.10765493
      4.81666670	    -16.98905226	      6.21630243	     -4.91902555	     -1.89752097	      0.93058724	      0.25480385	     16.89011865	     -5.65254969	     -7.47437784	      0.00000000	      3.94462316	      3.57839095	      0.00000000	     13.56786743	     -0.15095646	    -37.50554643	      0.00000000	      1.05316543	     11.19668282	      0.00000000	     -1.47760737	     33.16886798	    -15.32793081	     -4.97013504	     -6.41789148	    -43.03908135	     45.47398506	     79.49524165	     -7.21982484	    -13.20526723	     27.51791155	     26.69933010	     45.13603143
